<svg id="ba4e2fc0-e49e-4d99-9bad-7d7c2dba0c8d" data-name="Logo" xmlns="http://www.w3.org/2000/svg" viewBox="0 0 258 258"><defs><style>.ecf8a720-28d9-4c5c-a7eb-ccfe92c294aa{fill:#fff;}</style></defs><g id="f06d4b6d-6999-463e-8db2-25081a289548" data-name="Logo"><path id="f59fe605-1f0e-4793-81e4-c597d47afa15" data-name="white background" class="ecf8a720-28d9-4c5c-a7eb-ccfe92c294aa" d="M227,78.29c.15,2.17.15,4.34.15,6.53,0,66.73-50.8,143.69-143.69,143.69v0A143,143,0,0,1,6,205.83a102.73,102.73,0,0,0,12,.73A101.41,101.41,0,0,0,80.74,184.9a50.56,50.56,0,0,1-47.18-35.07,50.34,50.34,0,0,0,22.8-.87,50.51,50.51,0,0,1-40.51-49.5v-.64a50.18,50.18,0,0,0,22.92,6.32A50.56,50.56,0,0,1,23.14,37.71,143.33,143.33,0,0,0,127.22,90.47a50.55,50.55,0,0,1,86.06-46.06,101.34,101.34,0,0,0,32.07-12.26,50.69,50.69,0,0,1-22.2,27.93,100.43,100.43,0,0,0,29-7.95A102.59,102.59,0,0,1,227,78.29Z"/></g></svg>