<svg xmlns="http://www.w3.org/2000/svg" viewBox="0 0 676.37 676.37"><defs><style>.a97f4df5-5554-43be-890f-e2683e82efb5{fill:#fdfefe;}</style></defs><g id="fdd1226f-9f38-4044-ba82-742af9306815" data-name="Layer 1"><path class="a97f4df5-5554-43be-890f-e2683e82efb5" d="M370.77,234.23v59.4c24.1-38,55-61.5,96.3-68.13C572.88,208.52,638.79,259,648,365.84c3.9,45.2,2.86,90.85,3.32,136.3.49,49.22.11,98.45.11,148.13H522c0-56.94.12-113.76-.06-170.58-.07-22.87-.19-45.77-1.34-68.59-2.45-49-24.36-73.33-65.7-74.21-44.35-.93-74.19,24.32-76,71.84-3,76.43-1.86,153-2.46,229.55,0,3.76,0,7.53,0,11.85H247.23V234.23Z"/><path class="a97f4df5-5554-43be-890f-e2683e82efb5" d="M35.61,234.27H164.34v415.9H35.61Z"/><path class="a97f4df5-5554-43be-890f-e2683e82efb5" d="M100.11,176.26c-40.93.05-75-33.8-75.16-74.7-.17-41.39,33.79-75.48,75.16-75.46,41.11,0,75,33.73,75.06,74.65A75.34,75.34,0,0,1,100.11,176.26Z"/></g></svg>